
        <svg xmlns="http://www.w3.org/2000/svg" xmlns:xlink="http://www.w3.org/1999/xlink" version="1.1" width="3164.8351648351645" height="1259.701953647876" viewBox="0 0 3164.8351648351645 1259.701953647876">
			
			<g transform="scale(8.241758241758241) translate(10, 10)">
				<defs id="SvgjsDefs1593"/><g id="SvgjsG1594" featureKey="symbolFeature-0" transform="matrix(1.0828820743308967,0,0,1.0828820743308967,-1.9296933448903468,18.070306655109654)" fill="#000"><g xmlns="http://www.w3.org/2000/svg"><circle cx="45" cy="44.999" r="5.277"/><g><g><path d="M45.214,33.672c24.117-31.271,0.369-31.89,0.369-31.89S21.827,1.851,45.214,33.672z"/></g><g><path d="M37.141,36.837c-5.059-39.164-22.288-22.81-22.288-22.81S-1.896,30.874,37.141,36.837z"/></g><g><path d="M33.67,44.786c-31.269-24.119-31.888-0.37-31.888-0.37S1.851,68.173,33.67,44.786z"/></g><g><path d="M36.837,52.859c-39.166,5.059-22.81,22.288-22.81,22.288S30.874,91.899,36.837,52.859z"/></g><g><path d="M44.785,56.33c-24.118,31.271-0.369,31.888-0.369,31.888S68.171,88.149,44.785,56.33z"/></g><g><path d="M52.859,53.164c5.057,39.164,22.287,22.81,22.287,22.81S91.896,59.127,52.859,53.164z"/></g><g><path d="M56.33,45.216c31.271,24.117,31.888,0.369,31.888,0.369S88.148,21.829,56.33,45.216z"/></g><g><path d="M53.162,37.142c39.166-5.061,22.811-22.289,22.811-22.289S59.126-1.896,53.162,37.142z"/></g></g></g></g><g id="SvgjsG1595" featureKey="nameFeature-0" transform="matrix(3.5722422993693415,0,0,3.5722422993693415,92.23147133691997,-5.022572737641653)" fill="#000"><path d="M6.0938 1.4059999999999988 l27.813 0 l0 5.9375 l-27.813 0 l0 -5.9375 z M6.0938 32.6562 l27.734 0 l0 5.9375 l-27.734 0 l0 -5.9375 z M6.0938 16.875 l25.078 0 l0 5.8594 l-25.078 0 l0 -5.8594 z M75.60900000000001 25 c-0.36461 -0.98961 -0.88531 -1.8488 -1.5624 -2.578 c-0.46875 -0.52086 -1.224 -1.1198 -2.2656 -1.797 c-1.1459 -0.57289 -2.1615 -1.0156 -3.0469 -1.3281 c0.625 -0.36461 1.3021 -0.78125 2.0313 -1.25 c0.72914 -0.625 1.276 -1.224 1.6406 -1.7969 c0.46875 -0.625 0.85938 -1.3802 1.1719 -2.2656 c0.3125 -0.9375 0.46875 -1.9531 0.46875 -3.0469 c0 -2.9166 -1.0938 -5.2344 -3.2813 -6.9531 s-5.1563 -2.5781 -8.9063 -2.5781 l-14.453 0 l0 5.7813 l13.672 0 c1.9791 0 3.5938 0.41664 4.8438 1.25 c1.0938 0.83336 1.6406 2.0313 1.6406 3.5938 c0 1.7709 -0.625 3.0469 -1.875 3.8281 c-1.3021 0.83336 -2.9948 1.25 -5.0782 1.25 l-13.203 0 l0 5.4688 l14.609 0 c2.5 0 4.401 0.44273 5.7031 1.3281 c1.25 0.9375 1.875 2.1875 1.875 3.75 c0 1.6666 -0.625 2.9427 -1.875 3.828 c-1.3021 0.88539 -3.0469 1.3281 -5.2344 1.3281 l-15.078 0 l0 5.7813 l15 0 c2.0313 0 3.9063 -0.23438 5.625 -0.70313 c1.7709 -0.52086 3.2031 -1.1719 4.2969 -1.9531 s2.0313 -1.849 2.8125 -3.2031 c0.625 -1.25 0.9375 -2.7084 0.9375 -4.375 c0 -1.3021 -0.15625 -2.4219 -0.46875 -3.3594 z"/></g>
			</g>
		</svg>
	